<svg width="167" height="48" viewBox="0 0 167 48" fill="none" xmlns="http://www.w3.org/2000/svg">
<g clip-path="url(#clip0_201_9170)">
<path d="M62.3213 19.2299C62.5585 19.3722 62.7347 19.5009 62.9312 19.5958C65.2146 20.7274 65.2011 23.7358 63.4529 25.2604C62.7348 25.8921 61.8141 26.2455 60.8578 26.2564C58.8882 26.3061 56.912 26.3197 54.9289 26.2971C54.0074 26.2971 53.6144 25.8905 53.4924 24.9826C53.446 24.6344 53.4234 24.2835 53.4247 23.9323C53.4111 21.0774 53.4043 18.2135 53.4043 15.3406C53.4031 14.9346 53.4325 14.5292 53.4924 14.1277C53.5165 13.8274 53.6485 13.546 53.864 13.3355C54.0795 13.125 54.3639 12.9996 54.6646 12.9826C54.7458 12.9759 54.8274 12.9759 54.9086 12.9826C56.8261 12.9826 58.7505 12.9487 60.6748 13.03C61.4682 13.0264 62.2367 13.3064 62.8418 13.8196C63.4468 14.3327 63.8486 15.0452 63.9746 15.8284C64.0831 16.3331 64.0556 16.8575 63.8949 17.348C63.7341 17.8385 63.446 18.2775 63.0599 18.6201C62.8905 18.7963 62.6195 18.9724 62.3213 19.2299ZM56.4331 24.1424C57.6731 24.1424 58.8521 24.1424 60.0379 24.1424C60.2725 24.1161 60.5013 24.052 60.7155 23.9527C61.0236 23.8443 61.2909 23.6438 61.4812 23.3783C61.6715 23.1129 61.7755 22.7953 61.7793 22.4688C61.8168 22.2577 61.8112 22.0413 61.7627 21.8325C61.7142 21.6237 61.6239 21.4269 61.4973 21.254C61.3706 21.0811 61.2102 20.9357 61.0257 20.8266C60.8413 20.7174 60.6366 20.6468 60.4241 20.619C59.0689 20.2666 57.7544 20.4902 56.3586 20.4292L56.4331 24.1424ZM56.4331 18.3897C57.2733 18.3897 58.0797 18.3897 58.8792 18.3897C59.3182 18.3869 59.7551 18.33 60.1802 18.2203C60.5156 18.1095 60.8063 17.8933 61.009 17.604C61.2117 17.3146 61.3155 16.9676 61.305 16.6144C61.3066 16.2773 61.1826 15.9517 60.9571 15.7011C60.7316 15.4505 60.4207 15.293 60.0853 15.2593C58.8857 15.0814 57.6714 15.0224 56.4602 15.0831L56.4331 18.3897Z" fill="#777777"/>
<path d="M103.545 26.568C102.291 26.5911 101.062 26.2084 100.042 25.4771C99.5947 25.1483 99.2246 24.7256 98.9577 24.2387C98.6908 23.7518 98.5337 23.2124 98.4973 22.6583C98.4685 22.3724 98.5428 22.0856 98.7068 21.8495C98.8708 21.6135 99.1136 21.4438 99.3917 21.3709C99.6509 21.2987 99.9271 21.3179 100.174 21.4252C100.421 21.5326 100.623 21.7216 100.747 21.9604C100.902 22.212 101.034 22.4774 101.14 22.7532C101.98 24.6504 103.728 24.6911 105.171 24.149C105.421 24.0519 105.647 23.9024 105.834 23.7108C106.021 23.5191 106.165 23.2896 106.256 23.0378C106.391 22.6352 106.362 22.1953 106.174 21.8143C105.986 21.4333 105.655 21.1423 105.253 21.005C104.778 20.8085 104.263 20.7205 103.776 20.5646C102.8 20.2597 101.811 19.9819 100.848 19.6228C98.7344 18.8368 98.0839 16.0993 99.6153 14.1343C99.9331 13.7631 100.338 13.4767 100.794 13.3009C101.692 12.8855 102.669 12.6659 103.658 12.6566C104.647 12.6472 105.628 12.8484 106.533 13.2467C107.378 13.5714 108.06 14.2169 108.431 15.0423C108.563 15.3927 108.625 15.7656 108.614 16.14C108.606 16.3857 108.52 16.6225 108.367 16.8153C108.215 17.0081 108.004 17.1467 107.767 17.2106C107.542 17.3112 107.291 17.3345 107.052 17.2769C106.812 17.2193 106.599 17.0839 106.445 16.8921C106.154 16.5351 105.904 16.1464 105.7 15.7334C105.565 15.4534 105.356 15.2157 105.096 15.046C104.835 14.8764 104.533 14.7814 104.223 14.7713C103.837 14.6926 103.44 14.6911 103.054 14.7666C102.668 14.8422 102.301 14.9935 101.973 15.2117C101.788 15.3121 101.634 15.4621 101.529 15.6449C101.423 15.8276 101.371 16.0361 101.377 16.2469C101.384 16.4577 101.449 16.6626 101.564 16.8387C101.68 17.0149 101.843 17.1553 102.034 17.2445C102.505 17.5048 103.006 17.7073 103.525 17.8475C104.446 18.1456 105.395 18.376 106.323 18.6674C106.68 18.7897 107.026 18.9392 107.36 19.1146C107.884 19.3717 108.326 19.7698 108.636 20.2641C108.946 20.7585 109.112 21.3295 109.115 21.913C109.206 22.8054 109.014 23.704 108.566 24.481C108.271 24.9321 107.886 25.3173 107.435 25.6126C106.267 26.3221 104.909 26.6556 103.545 26.568Z" fill="#777777"/>
<path d="M75.527 20.0157C75.4708 19.6776 75.3962 19.3428 75.3034 19.0129C75.2542 18.8114 75.1399 18.6318 74.9782 18.5019C74.8165 18.372 74.6164 18.2992 74.409 18.2946C73.871 18.2698 73.332 18.2857 72.7964 18.3421C72.5822 18.3645 72.3764 18.4377 72.1961 18.5555C72.0158 18.6733 71.8662 18.8325 71.7597 19.0197C71.6391 19.2316 71.5079 19.4374 71.3667 19.6363C71.2124 19.8598 70.9794 20.0168 70.7143 20.0758C70.4492 20.1349 70.1715 20.0916 69.937 19.9547C69.7001 19.8487 69.512 19.6572 69.4103 19.4186C69.3085 19.1799 69.3006 18.9116 69.3881 18.6673C69.5278 18.0821 69.8805 17.57 70.3774 17.2308C70.978 16.7947 71.6756 16.511 72.4102 16.4042C73.5868 16.2094 74.791 16.2601 75.9471 16.5533C76.3615 16.6729 76.7531 16.8607 77.1058 17.1089C77.3473 17.2601 77.549 17.467 77.694 17.7122C77.839 17.9574 77.9231 18.2338 77.9392 18.5182C77.9934 19.6227 78.0815 20.7272 78.068 21.8316C78.0322 22.9094 78.1648 23.9862 78.461 25.023C78.5576 25.2749 78.5563 25.5539 78.4571 25.8048C78.358 26.0558 78.1684 26.2604 77.9257 26.3782C77.7126 26.5149 77.4567 26.5684 77.2067 26.5284C76.9568 26.4884 76.7303 26.3578 76.5705 26.1614C76.2724 25.8836 76.0284 25.5651 75.71 25.2128C75.4525 25.3754 75.1882 25.538 74.924 25.7142C74.3708 26.1092 73.736 26.3751 73.0664 26.4923C72.3969 26.6096 71.7095 26.5752 71.055 26.3918C70.397 26.2559 69.8129 25.8806 69.416 25.3384C69.0191 24.7963 68.8377 24.1261 68.907 23.4578C68.9352 22.9823 69.0997 22.525 69.3808 22.1404C69.662 21.7559 70.048 21.4605 70.4926 21.2896C71.0666 21.0584 71.6609 20.8815 72.2679 20.761C73.3181 20.5036 74.3684 20.28 75.527 20.0157ZM75.527 21.7097C74.5445 21.9265 73.7247 22.1027 72.9116 22.2924C72.6798 22.3504 72.4531 22.4275 72.234 22.5228C72.0313 22.6063 71.8621 22.7547 71.753 22.9448C71.6438 23.1349 71.6009 23.3559 71.6309 23.573C71.6317 23.7928 71.6962 24.0076 71.8164 24.1916C71.9366 24.3755 72.1075 24.5208 72.3085 24.6097C72.6019 24.7283 72.9162 24.7862 73.2326 24.7797C73.5489 24.7732 73.8607 24.7026 74.1489 24.5721C74.4372 24.4416 74.696 24.2539 74.9096 24.0204C75.1231 23.787 75.2871 23.5126 75.3915 23.2139C75.473 22.7075 75.5138 22.1954 75.5135 21.6826L75.527 21.7097Z" fill="#777777"/>
<path d="M155.388 20.0295C155.388 18.6743 154.913 18.1932 153.721 18.2339C153.504 18.2339 153.294 18.2745 153.043 18.2948C152.703 18.3061 152.373 18.414 152.093 18.6061C151.812 18.7981 151.592 19.0662 151.458 19.379C151.39 19.6004 151.251 19.7931 151.062 19.9268C150.873 20.0605 150.645 20.1276 150.414 20.1175C150.251 20.1281 150.088 20.1009 149.937 20.0381C149.786 19.9753 149.651 19.8785 149.544 19.7553C149.436 19.6321 149.359 19.4857 149.317 19.3276C149.275 19.1695 149.27 19.0039 149.303 18.8437C149.352 18.5073 149.474 18.1859 149.661 17.9024C149.849 17.6189 150.097 17.3804 150.387 17.2039C150.963 16.7918 151.63 16.5245 152.332 16.4247C153.431 16.2618 154.551 16.2962 155.638 16.5264C157.407 16.96 157.705 17.5969 157.942 19.3044C158.017 20.0588 158.03 20.8179 157.983 21.5744C157.913 22.7352 158.065 23.8987 158.43 25.0029C158.532 25.228 158.549 25.4823 158.478 25.7189C158.407 25.9556 158.253 26.1585 158.044 26.2903C157.856 26.4737 157.605 26.5763 157.343 26.5763C157.08 26.5763 156.829 26.4737 156.641 26.2903C156.31 25.9749 155.998 25.6401 155.706 25.2875C155.394 25.4705 155.029 25.6602 154.717 25.877C154.184 26.227 153.582 26.4573 152.951 26.552C152.321 26.6468 151.677 26.6037 151.065 26.4259C150.411 26.2822 149.831 25.9067 149.432 25.3686C149.034 24.8305 148.843 24.1662 148.896 23.4987C148.923 23.023 149.086 22.565 149.364 22.1784C149.643 21.7919 150.026 21.493 150.468 21.3169C151.044 21.0848 151.641 20.9079 152.251 20.7884C153.267 20.5038 154.317 20.2734 155.388 20.0295ZM155.476 21.7031C154.466 21.9335 153.551 22.1367 152.644 22.3807C152.487 22.4176 152.334 22.4721 152.19 22.5433C151.973 22.6207 151.789 22.7681 151.667 22.9621C151.544 23.156 151.489 23.3854 151.512 23.6139C151.513 23.8458 151.588 24.0714 151.727 24.2569C151.867 24.4425 152.062 24.5782 152.284 24.6438C152.677 24.7909 153.102 24.832 153.516 24.763C153.93 24.694 154.318 24.5174 154.642 24.2508C155.455 23.6003 155.435 22.7127 155.476 21.6828V21.7031Z" fill="#777777"/>
<path d="M113.208 21.4251C113.237 20.0139 113.776 18.661 114.726 17.6171C115.312 17.0052 116.084 16.6029 116.921 16.4719C117.642 16.2805 118.394 16.2419 119.131 16.3586C119.867 16.4753 120.571 16.7447 121.197 17.1495C121.745 17.5217 122.209 18.0046 122.559 18.5672C122.909 19.1297 123.138 19.7593 123.229 20.4155C123.415 21.4282 123.324 22.4724 122.965 23.4375C122.586 24.4615 121.869 25.3259 120.933 25.8886C119.997 26.4514 118.898 26.679 117.816 26.5341C117.464 26.5 117.115 26.4389 116.772 26.3511C116.045 26.1794 115.375 25.8219 114.827 25.3136C114.28 24.8052 113.874 24.1635 113.648 23.451C113.454 22.787 113.306 22.11 113.208 21.4251ZM115.81 21.4251C115.932 22.0355 116.092 22.6375 116.291 23.2274C116.436 23.5954 116.685 23.9131 117.007 24.1418C117.33 24.3705 117.712 24.5001 118.107 24.5149C118.527 24.5772 118.957 24.5061 119.335 24.3116C119.713 24.1172 120.02 23.8091 120.214 23.4307C120.564 22.8175 120.747 22.124 120.747 21.4183C120.747 20.7126 120.564 20.0191 120.214 19.4059C120.021 19.0457 119.724 18.7523 119.361 18.5637C118.998 18.3751 118.587 18.3003 118.181 18.3488C117.785 18.3604 117.4 18.4879 117.075 18.7154C116.75 18.943 116.499 19.2607 116.352 19.6295C116.132 20.2154 115.951 20.8153 115.81 21.4251Z" fill="#777777"/>
<path d="M127.424 21.5065C127.393 20.6867 127.55 19.8707 127.884 19.1214C128.17 18.43 128.626 17.8224 129.21 17.3555C129.794 16.8885 130.488 16.5776 131.225 16.4517C132.533 16.1763 133.897 16.358 135.087 16.9667C135.764 17.3194 136.3 17.8934 136.605 18.5929C136.71 18.7827 136.765 18.996 136.765 19.2129C136.765 19.4298 136.71 19.6431 136.605 19.8329C136.526 19.9923 136.407 20.1287 136.26 20.2293C136.113 20.3299 135.943 20.3912 135.766 20.4075C135.589 20.4238 135.41 20.3945 135.248 20.3224C135.085 20.2503 134.943 20.1378 134.836 19.9955C134.613 19.7651 134.43 19.4941 134.227 19.2434C133.981 18.9084 133.646 18.6485 133.261 18.4929C132.876 18.3374 132.455 18.2922 132.045 18.3626C131.636 18.433 131.254 18.616 130.943 18.8913C130.631 19.1666 130.403 19.5231 130.283 19.921C129.937 20.894 129.937 21.9564 130.283 22.9294C130.417 23.3201 130.653 23.6675 130.968 23.9351C131.283 24.2026 131.663 24.3804 132.071 24.4498C132.478 24.5191 132.896 24.4775 133.281 24.3292C133.667 24.1808 134.005 23.9314 134.261 23.607C134.477 23.3292 134.66 23.0243 134.87 22.7533C134.997 22.5434 135.188 22.3796 135.415 22.2858C135.642 22.1919 135.892 22.1729 136.131 22.2315C136.394 22.3344 136.612 22.5266 136.747 22.7745C136.882 23.0224 136.925 23.31 136.869 23.5867C136.795 24.0425 136.616 24.4747 136.345 24.8488C136.075 25.223 135.721 25.5286 135.311 25.7414C134.115 26.3973 132.734 26.6358 131.388 26.419C130.606 26.3228 129.864 26.0213 129.237 25.5453C128.609 25.0692 128.12 24.4355 127.817 23.7087C127.516 23.0153 127.381 22.2612 127.424 21.5065Z" fill="#777777"/>
<path d="M68.0062 38.1141V32.1785H69.4968C69.5714 32.8896 69.5918 33.6054 69.5578 34.3196C69.5578 34.9972 69.5578 35.7222 69.5578 36.4269V40.7973C69.1064 40.8215 68.6541 40.8215 68.2027 40.7973C67.9965 40.7643 67.8091 40.6585 67.6741 40.4992C66.9491 39.598 66.2512 38.6697 65.533 37.7889C64.7888 36.8163 63.9902 35.8865 63.1411 35.004V40.7567H61.7385C61.5716 37.9296 61.549 35.0959 61.6708 32.2666C62.0496 32.1461 62.4527 32.1228 62.843 32.1988C63.0493 32.239 63.233 32.355 63.3579 32.524C64.1846 33.5607 64.9706 34.6178 65.7905 35.6545C66.4681 36.5218 67.1456 37.3755 67.8774 38.2293L68.0062 38.1141Z" fill="#777777"/>
<path d="M158.999 40.8109V32.131C159.487 32.131 159.934 32.131 160.354 32.131C161.35 32.1227 162.346 32.1725 163.336 32.2801C164.213 32.3444 165.038 32.722 165.66 33.3439C166.282 33.9659 166.659 34.7908 166.723 35.668C166.75 36.1193 166.75 36.5718 166.723 37.0232C166.734 37.6085 166.595 38.1869 166.32 38.7037C166.045 39.2206 165.643 39.6589 165.151 39.9774C164.569 40.3905 163.885 40.6365 163.173 40.6889C161.818 40.7702 160.463 40.7702 158.999 40.8109ZM160.646 39.2456C161.398 39.2456 162.075 39.2863 162.746 39.2456C163.277 39.233 163.79 39.0486 164.208 38.72C164.626 38.3914 164.926 37.9363 165.063 37.4229C165.165 36.949 165.193 36.4621 165.145 35.9797C165.131 35.4888 164.96 35.0154 164.656 34.6297C164.352 34.244 163.932 33.9666 163.458 33.8385C162.544 33.5747 161.584 33.5168 160.646 33.6691V39.2456Z" fill="#777777"/>
<path d="M116.596 37.6737L118.69 40.7364H116.758C116.244 40.0588 115.654 39.3135 115.132 38.5275C115.02 38.3153 114.844 38.1441 114.628 38.0382C114.413 37.9324 114.169 37.8973 113.933 37.938C113.619 37.9552 113.305 37.9552 112.991 37.938V40.7229H111.439V32.2734C111.5 32.2192 111.521 32.1853 111.541 32.1853C113.103 32.0531 114.675 32.0872 116.23 32.287C117.816 32.558 118.263 33.5947 118.263 35.1938C118.238 35.5699 118.155 35.94 118.019 36.2915C117.909 36.6185 117.722 36.9145 117.475 37.1549C117.227 37.3953 116.926 37.5732 116.596 37.6737ZM112.971 33.6082C112.971 34.6111 112.93 35.5394 113.005 36.5286C113.926 36.488 114.766 36.5286 115.586 36.3931C116.406 36.2576 116.711 35.8104 116.711 34.9837C116.711 34.1571 116.44 33.8589 115.586 33.676C115.429 33.6387 115.267 33.6182 115.105 33.615C114.434 33.5879 113.764 33.5947 112.971 33.5947V33.6082Z" fill="#777777"/>
<path d="M163.302 19.6024V14.5815C163.295 14.3121 163.308 14.0425 163.342 13.7752C163.374 13.5049 163.494 13.2526 163.684 13.0578C163.874 12.8629 164.123 12.7363 164.392 12.6978C164.678 12.669 164.964 12.7342 165.209 12.8835C165.454 13.0327 165.643 13.2578 165.748 13.5244C165.853 13.8299 165.907 14.1502 165.91 14.4731C165.91 17.9016 165.91 21.3302 165.91 24.7588C165.908 25.0547 165.865 25.3489 165.782 25.6329C165.699 25.9212 165.519 26.1717 165.271 26.3412C165.024 26.5107 164.725 26.5885 164.426 26.5612C164.145 26.5229 163.886 26.3911 163.689 26.187C163.492 25.9829 163.37 25.7185 163.342 25.4364C163.314 25.1663 163.303 24.8947 163.308 24.6233L163.302 19.6024Z" fill="#777777"/>
<path d="M85.9278 19.6498C85.9278 21.3212 85.9278 22.9948 85.9278 24.6707C85.9357 24.9674 85.9198 25.2642 85.8804 25.5583C85.8245 25.8394 85.676 26.0937 85.4586 26.2804C85.2412 26.4672 84.9674 26.5755 84.681 26.5883C84.4133 26.6038 84.1479 26.5296 83.9271 26.3774C83.7062 26.2252 83.5423 26.0038 83.4614 25.748C83.351 25.4439 83.2937 25.123 83.292 24.7994C83.292 21.3438 83.292 17.8903 83.292 14.4392C83.2937 14.1972 83.3233 13.9562 83.3801 13.7209C83.4289 13.4255 83.5824 13.1574 83.8125 12.9658C84.0427 12.7742 84.3342 12.6718 84.6336 12.6775C84.9479 12.6909 85.2467 12.8177 85.4747 13.0344C85.7027 13.2512 85.8444 13.5432 85.8736 13.8565C85.8871 14.1251 85.8871 14.3942 85.8736 14.6628L85.9278 19.6498Z" fill="#777777"/>
<path d="M126.631 32.1582H128.237C129.484 34.9905 130.73 37.8364 132.004 40.75H130.29C130.046 40.1537 129.802 39.5371 129.531 38.8798H125.615C125.506 38.8805 125.401 38.9167 125.316 38.9828C125.23 39.0489 125.168 39.1413 125.14 39.2457C124.923 39.7404 124.686 40.2214 124.463 40.7567H122.904C122.94 40.6005 122.985 40.4466 123.04 40.296C124.083 37.9019 125.131 35.5145 126.184 33.1339C126.306 32.8155 126.468 32.5241 126.631 32.1582ZM127.363 34.191L126.102 37.2672C126.977 37.4642 127.885 37.4479 128.752 37.2198C128.305 36.2102 127.851 35.2344 127.363 34.1638V34.191Z" fill="#777777"/>
<path d="M148.808 37.1384V39.2592H153.49V40.7702H147.317V32.253C149.331 32.0866 151.355 32.0866 153.368 32.253V33.6082C151.878 33.7369 150.373 33.6082 148.835 33.6963C148.762 34.3713 148.744 35.0511 148.781 35.729C150.136 35.8307 151.491 35.729 152.88 35.8036V37.1587L148.808 37.1384Z" fill="#777777"/>
<path d="M86.7347 32.1785H92.7042V33.6285H88.1712C88.118 34.3047 88.1044 34.9834 88.1305 35.6612C89.4857 35.7426 90.8408 35.6612 92.2299 35.7222V37.0774H88.2118C88.1132 37.7798 88.086 38.4904 88.1305 39.1982C88.9572 39.2389 89.7296 39.1982 90.5088 39.1982H92.8058V40.6686H86.7618C86.5876 37.8415 86.5786 35.0066 86.7347 32.1785Z" fill="#777777"/>
<path d="M104.223 36.5218H105.673C105.723 36.697 105.76 36.876 105.781 37.0571C105.781 37.7347 105.781 38.358 105.781 39.0017C105.791 39.2184 105.743 39.4336 105.641 39.6254C105.54 39.8171 105.39 39.9784 105.205 40.0926C103.796 41.0955 101.14 41.1768 99.7304 40.174C99.2282 39.8395 98.7991 39.4067 98.4691 38.9016C98.1391 38.3965 97.9151 37.8297 97.8106 37.2355C97.7061 36.6413 97.7232 36.032 97.861 35.4446C97.9989 34.8572 98.2544 34.3039 98.6123 33.8182C99 33.2973 99.4921 32.863 100.057 32.5433C100.623 32.2236 101.248 32.0256 101.894 31.9618C102.541 31.898 103.193 31.9699 103.81 32.1729C104.427 32.3759 104.994 32.7055 105.476 33.1406L104.609 34.2925C104.231 33.9934 103.794 33.7782 103.327 33.6614C102.86 33.5445 102.373 33.5287 101.899 33.615C101.252 33.6844 100.652 33.984 100.208 34.4592C99.7636 34.9344 99.5052 35.5534 99.4797 36.2033C99.3712 36.8242 99.4895 37.4634 99.8128 38.0044C100.136 38.5454 100.643 38.9523 101.241 39.1508C101.735 39.3315 102.263 39.395 102.786 39.3362C103.308 39.2774 103.809 39.0979 104.25 38.812L104.223 36.5218Z" fill="#777777"/>
<path d="M91.0509 21.4117C91.0509 20.253 91.0509 19.0876 91.0509 17.9289C91.0521 17.6352 91.1048 17.3439 91.2068 17.0684C91.3066 16.8292 91.4816 16.6291 91.7054 16.4983C91.9291 16.3675 92.1894 16.3131 92.4468 16.3434C92.678 16.3334 92.906 16.4005 93.0949 16.5342C93.2837 16.6679 93.4228 16.8606 93.4902 17.082C93.5812 17.3342 93.6292 17.5999 93.6325 17.868C93.6325 20.2395 93.6325 22.611 93.6325 24.9894C93.626 25.2571 93.578 25.5223 93.4902 25.7753C93.4254 26.0125 93.2808 26.22 93.0809 26.3632C92.881 26.5063 92.638 26.5763 92.3926 26.5613C92.1467 26.5737 91.9029 26.5102 91.6944 26.3792C91.4859 26.2483 91.3228 26.0564 91.2271 25.8296C91.1108 25.5292 91.051 25.2098 91.0509 24.8877C91.0374 23.7155 91.0509 22.5704 91.0509 21.4117Z" fill="#777777"/>
<path d="M144.302 21.3912C144.302 22.4685 144.302 23.5527 144.302 24.63C144.306 24.9802 144.26 25.3292 144.167 25.6667C144.073 25.9522 143.883 26.1967 143.63 26.3594C143.378 26.5222 143.077 26.5934 142.778 26.5612C142.51 26.5129 142.264 26.3805 142.077 26.1831C141.889 25.9857 141.769 25.7336 141.734 25.4635C141.716 25.238 141.716 25.0114 141.734 24.7859C141.734 22.5273 141.734 20.2687 141.734 18.0101C141.721 17.8228 141.721 17.6349 141.734 17.4477C141.762 17.1779 141.878 16.9248 142.064 16.7276C142.251 16.5304 142.497 16.4 142.764 16.3567C143.061 16.304 143.367 16.3599 143.626 16.5142C143.884 16.6685 144.079 16.9109 144.174 17.197C144.266 17.5069 144.312 17.8289 144.309 18.1523C144.316 19.2297 144.302 20.3274 144.302 21.3912Z" fill="#777777"/>
<path d="M81.3884 32.1784V33.5336H78.9423C78.8507 34.3251 78.8258 35.123 78.8678 35.9187C78.8678 36.725 78.8678 37.5381 78.8678 38.3444V40.7227H77.35C77.35 40.472 77.2958 40.2145 77.2958 39.9638V33.5946H74.9107C74.791 33.1211 74.7475 32.6316 74.7819 32.1445L81.3884 32.1784Z" fill="#777777"/>
<path d="M139.458 33.6285V40.716H137.981C137.94 39.5302 137.981 38.358 137.981 37.179V33.6285H135.514C135.412 33.1524 135.382 32.6635 135.426 32.1785H142.141V33.5336L139.458 33.6285Z" fill="#777777"/>
<path d="M54.0817 32.1514H55.4369L55.5182 32.2259C55.5182 32.2259 55.5588 32.2666 55.5588 32.2869C55.5588 34.9972 55.5588 37.6895 55.5588 40.3637C55.5478 40.4843 55.5297 40.6042 55.5046 40.7228H54.1223C53.9544 37.8685 53.9409 35.0072 54.0817 32.1514Z" fill="#777777"/>
<path d="M92.3992 12.8198C92.5618 12.8133 92.724 12.84 92.8759 12.8983C93.0278 12.9565 93.1664 13.0451 93.283 13.1585C93.3996 13.272 93.4919 13.408 93.5543 13.5583C93.6167 13.7086 93.6479 13.87 93.6459 14.0327C93.6648 14.201 93.6484 14.3715 93.5977 14.5331C93.5471 14.6948 93.4633 14.8441 93.3517 14.9716C93.2402 15.0991 93.1033 15.202 92.9498 15.2736C92.7963 15.3453 92.6295 15.3842 92.4602 15.3878C92.2847 15.4036 92.1079 15.3834 91.9405 15.3284C91.7731 15.2735 91.6187 15.1849 91.4868 15.0682C91.3548 14.9515 91.2481 14.809 91.1731 14.6496C91.0982 14.4902 91.0565 14.3171 91.0508 14.1411C91.0596 13.7887 91.2053 13.4537 91.4571 13.207C91.7088 12.9603 92.0467 12.8214 92.3992 12.8198Z" fill="#777777"/>
<path d="M142.9 12.8198C143.08 12.8013 143.262 12.8208 143.434 12.877C143.606 12.9333 143.764 13.0251 143.899 13.1464C144.033 13.2678 144.141 13.416 144.214 13.5815C144.288 13.747 144.326 13.9261 144.326 14.1072C144.326 14.2883 144.288 14.4674 144.214 14.6329C144.141 14.7984 144.033 14.9466 143.899 15.0679C143.764 15.1893 143.606 15.281 143.434 15.3373C143.262 15.3936 143.08 15.4131 142.9 15.3946C142.737 15.3964 142.577 15.3657 142.426 15.3043C142.276 15.2429 142.14 15.152 142.026 15.0371C141.911 14.9221 141.821 14.7853 141.761 14.6349C141.7 14.4845 141.67 14.3235 141.673 14.1614C141.663 13.9922 141.687 13.8227 141.744 13.663C141.8 13.5032 141.888 13.3564 142.003 13.2313C142.117 13.1063 142.255 13.0054 142.409 12.9347C142.563 12.864 142.73 12.8249 142.9 12.8198Z" fill="#777777"/>
<path d="M2.2738 26.9408C3.33089 25.3845 4.5732 23.9625 5.9734 22.7059C6.83356 21.9215 7.78173 21.2393 8.79892 20.6732C9.74122 20.1402 10.4729 19.301 10.8723 18.2949C10.9205 18.1694 10.9457 18.0363 10.9469 17.9019C11.0078 17.1768 11.0417 16.4518 11.123 15.7336C11.1473 15.3056 11.2247 14.8822 11.3534 14.4733C11.9038 12.8248 13.0043 11.4157 14.4703 10.4823C15.6434 9.66181 16.9869 9.11744 18.4003 8.89C18.468 8.89 18.5222 8.80191 18.5832 8.75448C22.8113 8.53765 29.594 8.51732 30.5561 8.75448C30.5561 10.3671 30.5561 12.0001 30.5968 13.6399L31.044 13.5518L30.5968 13.6128C30.5968 15.0718 30.5968 16.5309 30.5968 17.9899C30.7517 18.0693 30.919 18.122 31.0914 18.1458C31.9234 18.1336 32.7539 18.0703 33.5781 17.9561C34.2934 17.9209 34.99 17.7165 35.6109 17.3598C36.0242 17.1768 36.4443 17.0074 36.8441 16.8042C38.3763 16.0359 39.5916 14.7559 40.2794 13.1859C40.6186 12.4812 40.8012 11.7114 40.8147 10.9295C40.8147 8.76803 40.8147 6.61332 40.8147 4.4586C40.7842 4.14549 40.7298 3.83516 40.6521 3.53031C40.6306 3.01177 40.4875 2.50555 40.2345 2.05243C39.9814 1.59931 39.6255 1.21197 39.1953 0.921615C38.4137 0.317844 37.4523 -0.00659857 36.4647 0.000101734C30.5923 0.000101734 24.7199 0.000101734 18.8475 0.000101734C18.2598 0.0476244 17.6772 0.145097 17.1061 0.291463C15.1931 0.431962 13.324 0.933155 11.5973 1.76859C11.4659 1.79436 11.3368 1.83061 11.2111 1.87701C9.28792 2.70523 7.5174 3.85045 5.9734 5.26492C3.95507 7.03258 2.40881 9.27513 1.47425 11.7901C1.03557 12.8891 0.774817 14.0511 0.701803 15.2322C0.634922 15.4277 0.589483 15.6299 0.566286 15.8352C0.557252 20.1853 0.552734 24.5241 0.552734 28.8516C0.579639 29.0255 0.632157 29.1945 0.708579 29.353C0.854536 29.2061 0.988239 29.0474 1.10835 28.8787C1.50135 28.235 1.83337 27.5506 2.2738 26.9408Z" fill="#777777"/>
<path d="M42.651 22.9294C42.6084 22.4878 42.4638 22.0621 42.2286 21.6858C41.9934 21.3096 41.6741 20.993 41.2958 20.7612C40.7642 20.2982 40.0759 20.0558 39.3715 20.0836C39.1517 20.0108 38.9244 19.9631 38.6939 19.9413C34.6894 19.9413 30.6849 19.9006 26.6804 19.9413C22.6758 19.9819 18.6781 19.7719 14.6871 20.07C12.6778 20.2223 10.7278 20.8207 8.97891 21.8217C7.23007 22.8227 5.72647 24.2011 4.57759 25.8566C4.4082 26.0937 4.27268 26.3512 4.11684 26.5952C2.96449 28.0814 2.14007 29.7949 1.69787 31.6228C1.16503 33.0233 0.889577 34.5084 0.884766 36.0068V40.2214V47.6748C1.04694 47.7464 1.21778 47.7965 1.39295 47.8238C3.65156 47.8238 5.91018 47.8238 8.16879 47.8238C8.34398 47.7986 8.51356 47.7436 8.6702 47.6612V35.8374C8.7425 35.7309 8.79314 35.6111 8.81927 35.4851C8.88424 34.2 9.30664 32.9586 10.0389 31.9006C10.6806 30.979 11.4759 30.1745 12.3901 29.5223C13.3822 28.909 14.539 28.6156 15.7035 28.6821C16.3811 28.6821 17.0587 28.6008 17.7363 28.5669C18.0319 28.5499 18.3283 28.5499 18.6239 28.5669C19.0033 28.5669 19.376 28.6686 19.7487 28.6686H34.0999C34.4455 28.6686 34.7775 28.6686 35.1502 28.6686V31.2434C35.0408 32.6414 34.7115 34.0135 34.1744 35.3089C34.1032 35.3854 34.0376 35.467 33.9779 35.5528C33.2273 36.9034 32.0603 37.9752 30.651 38.6087C30.0516 38.8401 29.441 39.0414 28.8215 39.2118C24.9254 39.2118 21.0293 39.2118 17.1332 39.2118C15.3614 39.1323 13.6276 39.7418 12.2953 40.9125C11.3287 41.7426 10.6228 42.8344 10.2625 44.0565C10.2271 44.0965 10.1954 44.1396 10.1677 44.1852C9.87924 45.1756 9.7109 46.197 9.66625 47.2276C9.66625 47.3563 9.75433 47.5054 9.80176 47.6477C10.0457 47.7493 10.3032 47.9661 10.52 47.9255C11.025 47.8814 11.5328 47.8814 12.0378 47.9255C17.5217 47.9255 23.0033 47.9255 28.4827 47.9255C28.7126 47.9035 28.9397 47.8581 29.1603 47.79C30.3387 47.6894 31.4972 47.4248 32.6024 47.004C35.2451 46.0339 37.5591 44.3355 39.2766 42.105C39.5171 41.8159 39.7303 41.5052 39.9136 41.1768C40.4556 40.1333 40.9706 39.083 41.4923 38.0328C41.9726 37.231 42.2603 36.3288 42.3325 35.397C42.4012 34.8179 42.503 34.2433 42.6375 33.6759C42.7043 33.4546 42.7519 33.2279 42.7797 32.9983C42.7797 31.3789 42.7797 29.7662 42.7797 28.1536C42.849 26.4113 42.806 24.6663 42.651 22.9294Z" fill="#777777"/>
</g>
<defs>
<clipPath id="clip0_201_9170">
<rect width="166.211" height="48" fill="white" transform="translate(0.552734)"/>
</clipPath>
</defs>
</svg>
