<svg width="144" height="48" viewBox="0 0 144 48" fill="none" xmlns="http://www.w3.org/2000/svg">
<g clip-path="url(#clip0_201_9168)">
<path d="M39.2531 6.52031L27.6308 35.0591L27.7484 35.3706C27.9096 35.7446 28.1633 36.072 28.4861 36.3226L35.5287 19.0308C35.5571 18.9537 35.6021 18.8837 35.6605 18.8256C35.7187 18.7655 35.7884 18.7176 35.8656 18.6848C35.9427 18.652 36.0257 18.6349 36.1096 18.6344C36.1929 18.6344 36.2754 18.6513 36.352 18.684C36.4337 18.7121 36.508 18.7581 36.5694 18.8185C36.6291 18.8756 36.6764 18.9442 36.7084 19.0202C36.7723 19.1756 36.7723 19.3497 36.7084 19.5051L29.7086 36.7083C29.6867 36.7526 29.6535 36.7904 29.6124 36.818C29.5704 36.8431 29.5224 36.8565 29.4734 36.857H23.5535C22.5401 36.8648 21.5476 36.5709 20.704 36.0133C19.8603 35.4556 19.2043 34.6598 18.8205 33.7285L10.9796 14.4832C10.9688 14.4438 10.9688 14.4022 10.9796 14.3628C10.9839 14.3226 10.9973 14.2839 11.0188 14.2496C11.0431 14.2172 11.0733 14.1896 11.1079 14.1682C11.1436 14.1475 11.1841 14.1365 11.2255 14.1363H18.9096C18.9614 14.1357 19.0123 14.1505 19.0557 14.1788C19.0989 14.2072 19.1324 14.2479 19.1519 14.2956L24.2093 26.6468L31.7294 8.20136C31.7596 8.12511 31.8044 8.05541 31.8613 7.99609C31.9201 7.93668 31.9904 7.88972 32.068 7.85807C32.1441 7.82403 32.2269 7.80711 32.3103 7.80853C32.3934 7.80739 32.4759 7.82304 32.5527 7.85453C32.6305 7.88622 32.7018 7.9318 32.763 7.98902C32.8227 8.04611 32.87 8.11476 32.902 8.19074C32.9345 8.26811 32.9515 8.35108 32.9519 8.43494C32.9523 8.51738 32.9366 8.59913 32.9055 8.67559L24.9007 28.342L25.585 30.0266L36.0312 4.35088C30.7915 1.40865 24.6094 0.591252 18.777 2.06955C12.9446 3.54784 7.91327 7.20741 4.73473 12.2833C1.55618 17.3593 0.476402 23.4587 1.72108 29.3067C2.96576 35.1547 6.43857 40.2987 11.4136 43.6635C16.3887 47.0283 22.4809 48.3535 28.417 47.362C34.353 46.3706 39.6734 43.1392 43.2661 38.3434C46.8588 33.5476 48.4457 27.5585 47.6952 21.6279C46.9447 15.6974 43.9148 10.2843 39.2388 6.52031H39.2531ZM36.213 1.79216H38.4049L37.1111 4.97729L26.2657 31.7324L26.9465 33.417L38.2445 5.65325L39.6024 2.30886L41.2026 3.81649C41.2392 3.85079 41.2877 3.8698 41.3381 3.86957C41.3885 3.87017 41.4371 3.85111 41.4735 3.81649C41.492 3.78541 41.5017 3.74996 41.5017 3.71386C41.5017 3.67775 41.492 3.64231 41.4735 3.61122L40.0978 1.01711L40.3152 0.415471C40.4399 0.0828013 40.7001 -0.79842 40.2261 -1.00014C39.7521 -1.20187 39.3279 -0.384352 39.1818 -0.0552212L38.9145 0.514564L36.1274 1.43471C36.0938 1.4516 36.0654 1.4773 36.0455 1.50903C36.0242 1.54041 36.0131 1.57741 36.0134 1.61521C36.0138 1.64142 36.0212 1.66706 36.0348 1.68953C36.0462 1.71134 36.0619 1.7306 36.0811 1.74615C36.1019 1.76385 36.1262 1.7771 36.1524 1.78508C36.172 1.79088 36.1925 1.79327 36.213 1.79216ZM81.6402 14.1186H77.6342C77.6018 14.1197 77.5701 14.1282 77.5416 14.1434C77.513 14.157 77.4875 14.1763 77.4667 14.2C77.4466 14.2243 77.4309 14.2518 77.4204 14.2814C77.4134 14.3129 77.4134 14.3455 77.4204 14.377V34.1107C77.4174 34.1734 77.4393 34.2347 77.4812 34.2816C77.5231 34.3286 77.5819 34.3574 77.6449 34.3619H81.6509C81.6823 34.36 81.713 34.3517 81.7412 34.3378C81.7694 34.3238 81.7944 34.3043 81.8149 34.2805C81.8561 34.2337 81.8778 34.1729 81.8754 34.1107V14.3947C81.8807 14.363 81.8807 14.3308 81.8754 14.2991C81.8637 14.2701 81.8481 14.2427 81.8291 14.2177C81.807 14.1939 81.7804 14.1746 81.7507 14.1611C81.7234 14.1459 81.6929 14.1374 81.6616 14.1363L81.6402 14.1186ZM144.325 29.9204H128.247C128.218 29.9151 128.188 29.9151 128.158 29.9204C128.13 29.9315 128.104 29.9484 128.083 29.97C128.059 29.9878 128.04 30.0124 128.03 30.0408C128.018 30.0689 128.012 30.0989 128.012 30.1292V32.1005C128.032 32.7044 128.291 33.2761 128.734 33.6906C129.177 34.105 129.767 34.3286 130.375 34.3124H144.325C144.384 34.3118 144.441 34.2891 144.485 34.2487C144.529 34.2069 144.554 34.1497 144.556 34.0894V30.1611C144.554 30.1008 144.529 30.0436 144.485 30.0018C144.441 29.9615 144.384 29.9388 144.325 29.9381V29.9204ZM144.325 14.1186H128.247C128.218 14.1116 128.187 14.1116 128.158 14.1186C128.13 14.1284 128.104 14.1441 128.083 14.1646C128.059 14.1845 128.041 14.21 128.03 14.239C128.018 14.2671 128.012 14.2971 128.012 14.3274V18.3266C128.014 18.3559 128.021 18.3846 128.033 18.4115C128.045 18.438 128.062 18.462 128.083 18.4823C128.106 18.5009 128.131 18.5164 128.158 18.5283C128.188 18.5337 128.218 18.5337 128.247 18.5283H144.325C144.353 18.5334 144.382 18.5334 144.41 18.5283C144.437 18.5172 144.463 18.5017 144.485 18.4823C144.506 18.462 144.523 18.438 144.535 18.4115C144.549 18.3852 144.556 18.3561 144.556 18.3266V14.3593C144.554 14.299 144.529 14.2418 144.485 14.2C144.464 14.1794 144.439 14.1632 144.411 14.1523C144.384 14.1413 144.354 14.1359 144.325 14.1363V14.1186ZM144.325 22.0178H128.247C128.218 22.0124 128.188 22.0124 128.158 22.0178C128.13 22.0288 128.104 22.0457 128.083 22.0673C128.059 22.0871 128.041 22.1127 128.03 22.1416C128.018 22.1685 128.012 22.1974 128.012 22.2266V26.2186C128.012 26.2489 128.018 26.2789 128.03 26.3071C128.041 26.336 128.059 26.3616 128.083 26.3814C128.104 26.402 128.13 26.4177 128.158 26.4274C128.187 26.4345 128.218 26.4345 128.247 26.4274H144.325C144.354 26.4278 144.384 26.4224 144.411 26.4115C144.439 26.4006 144.464 26.3843 144.485 26.3637C144.529 26.322 144.554 26.2648 144.556 26.2045V22.3044C144.563 22.2718 144.563 22.238 144.556 22.2053C144.545 22.173 144.528 22.143 144.506 22.1169C144.484 22.0911 144.456 22.0706 144.424 22.0567C144.394 22.0426 144.361 22.0354 144.328 22.0355L144.325 22.0178ZM73.6817 14.1186H69.4334C69.3815 14.118 69.3306 14.1328 69.2873 14.1611C69.245 14.1905 69.2117 14.2309 69.191 14.2779L63.7309 27.7262L58.253 14.2779C58.2324 14.2319 58.2006 14.1917 58.1603 14.1611C58.1181 14.1333 58.0685 14.1185 58.0178 14.1186H53.7409C53.6995 14.1184 53.6587 14.1283 53.622 14.1475C53.5853 14.1666 53.554 14.1944 53.5306 14.2283C53.509 14.2642 53.4945 14.3039 53.4879 14.3451C53.4845 14.3864 53.4918 14.4278 53.5093 14.4655L61.1149 33.1941C61.2571 33.5469 61.5033 33.8489 61.8213 34.0605C62.1393 34.2721 62.5142 34.3833 62.8969 34.3796H65.6555C65.7064 34.3801 65.7562 34.3651 65.7982 34.3366C65.8403 34.3081 65.8726 34.2676 65.8907 34.2204L73.9526 14.5008C73.9704 14.4583 73.9777 14.4122 73.974 14.3664C73.9697 14.3201 73.9524 14.2759 73.9241 14.239C73.898 14.2004 73.8607 14.1708 73.8172 14.154C73.7728 14.1418 73.726 14.1418 73.6817 14.154V14.1186ZM98.1489 15.3042C98.0038 14.9533 97.7569 14.6532 97.4396 14.442C97.1223 14.2309 96.7488 14.1183 96.3668 14.1186H93.594C93.5444 14.1186 93.496 14.1334 93.455 14.1611C93.4166 14.1918 93.387 14.2321 93.3695 14.2779L85.3397 33.9974C85.3308 34.037 85.3308 34.0781 85.3397 34.1177C85.3454 34.1587 85.3613 34.1977 85.386 34.231C85.4078 34.2669 85.4402 34.2953 85.4787 34.3124C85.5142 34.3336 85.5549 34.3446 85.5963 34.3442H89.8553C89.905 34.3419 89.9531 34.326 89.9943 34.2982C90.0363 34.2709 90.0687 34.2314 90.087 34.185L95.5578 20.7366L101.029 34.185C101.048 34.2306 101.08 34.2697 101.121 34.2979C101.162 34.3261 101.21 34.3422 101.26 34.3442H105.519C105.56 34.3441 105.6 34.3344 105.637 34.3159C105.675 34.2964 105.707 34.267 105.73 34.231C105.754 34.1979 105.769 34.1587 105.772 34.1177C105.776 34.0765 105.769 34.0349 105.751 33.9974L98.1489 15.3042ZM123.906 14.1363H119.968C119.936 14.131 119.904 14.131 119.872 14.1363C119.84 14.1498 119.811 14.169 119.786 14.193C119.764 14.2186 119.746 14.2472 119.733 14.2779C119.726 14.3105 119.726 14.3443 119.733 14.377V25.5143C119.733 26.1002 119.616 26.6804 119.391 27.2216C119.165 27.7629 118.834 28.2546 118.416 28.6687C117.999 29.0828 117.503 29.4112 116.958 29.6351C116.413 29.859 115.828 29.974 115.238 29.9735H109.105C109.039 29.9762 108.977 30.0027 108.93 30.0479C108.883 30.0951 108.856 30.1585 108.855 30.2248V34.1461C108.856 34.2126 108.883 34.2762 108.93 34.323C108.977 34.3682 109.039 34.3946 109.105 34.3973H116.489C117.502 34.4063 118.507 34.2151 119.445 33.8348C120.382 33.4546 121.235 32.8929 121.952 32.1825C122.669 31.4721 123.236 30.6271 123.622 29.6968C124.007 28.7665 124.202 27.7694 124.195 26.7636V14.3947C124.195 14.3581 124.188 14.3218 124.173 14.2882C124.158 14.2547 124.137 14.2246 124.109 14.2C124.083 14.1757 124.051 14.1576 124.017 14.1469C123.981 14.1363 123.943 14.1326 123.906 14.1363Z" fill="#777777"/>
</g>
<defs>
<clipPath id="clip0_201_9168">
<rect width="142.562" height="48" fill="white" transform="translate(0.991211)"/>
</clipPath>
</defs>
</svg>
